<?xml version="1.0" standalone="no"?><!DOCTYPE svg PUBLIC "-//W3C//DTD SVG 1.1//EN" "http://www.w3.org/Graphics/SVG/1.1/DTD/svg11.dtd"><svg t="1518093933963" class="icon" style="" viewBox="0 0 1024 1024" version="1.1" xmlns="http://www.w3.org/2000/svg" p-id="1010" xmlns:xlink="http://www.w3.org/1999/xlink" width="200" height="200"><defs><style type="text/css"></style></defs><path d="M778.602987 653.725862c-43.735084 0-82.508155 20.923542-107.114576 53.234435l-283.026028-168.531368c3.213181-12.398378 5.100158-25.314549 5.100158-38.715767 0-3.89061-0.302899-7.686053-0.573051-11.494799l283.161105-170.612773c24.713868 28.935006 61.412698 47.344285 102.452393 47.344285 74.43427 0 134.771473-60.338227 134.771473-134.76738 0-74.42506-60.338227-134.763286-134.771473-134.763286-74.424037 0-134.759193 60.334133-134.759193 134.763286 0 14.767332 2.445702 28.916587 6.837732 42.222637L369.926214 417.98579c-27.26497-43.37795-75.391061-72.290443-130.376373-72.290443-85.053118 0-154.017816 68.959581-154.017816 154.017816s68.963675 154.012699 154.017816 154.012699c45.589314 0 86.426395-19.925818 114.624621-51.3976L648.347364 754.476497c-2.829442 10.872628-4.490268 22.23235-4.490268 34.012651 0 74.43427 60.34232 134.76738 134.76738 134.76738 74.429153 0 134.763286-60.33311 134.763286-134.76738C913.388786 714.059995 853.037257 653.725862 778.602987 653.725862L778.602987 653.725862 778.602987 653.725862zM778.602987 653.725862" p-id="1011" fill="#ffffff"></path></svg>