<svg t="1518509796496" class="icon" style="" viewBox="0 0 1025 1024" version="1.1" xmlns="http://www.w3.org/2000/svg" p-id="1728" xmlns:xlink="http://www.w3.org/1999/xlink" width="16.015625" height="16"><defs>
    <style type="text/css"></style></defs>
    <path d="M579.451474 601.338706c-14.946711 14.236264-25.412141 23.144176-32.407312 28.773102 3.41561-18.444296 12.323522-55.05964 33.746231-127.115357 21.368059-71.427245 23.226151-83.887392 23.226151-90.008165 0-10.684029-4.481281-20.165764-12.241548-26.696411-17.4606-14.372889-48.228419-11.531101-85.39026 9.481734-20.712262 11.613075-42.736117 30.549219-67.301187 57.464229l-12.81537 14.236264 42.517518 32.762535 10.902628-10.738679c11.831674-11.476451 19.86519-18.936144 25.220867-23.936598-32.461961 106.676344-48.283069 172.993836-48.283069 202.695984 0 13.471167 3.907458 24.647045 11.831674 33.117759 7.978866 8.689313 19.154743 13.252568 31.970113 13.252568 12.542121 0 26.91501-4.836504 44.37561-14.728112 15.739133-8.907912 39.375157-28.417879 72.438266-59.458946l13.389193-12.81537-38.66471-37.599039L579.451474 601.338706 579.451474 601.338706zM984.10567 312.487365c-25.767365-60.961815-62.874556-115.802855-109.818706-162.66503-46.998799-46.998799-101.83984-83.969366-162.66503-109.818706-126.40491-53.338172-272.401761-53.338172-398.888646 0-60.87984 25.84934-115.584256 62.819907-162.66503 109.818706-46.998799 46.944149-84.105991 101.83984-109.818706 162.66503-26.641761 63.311755-40.249553 130.257718-40.249553 199.471648 0 69.15928 13.525817 136.105243 40.167578 199.335023 25.712715 60.87984 62.819907 115.666231 109.818706 162.801654 46.916825 46.944149 101.703215 83.969366 162.66503 109.736731 63.311755 26.778386 130.312368 40.167578 199.389673 40.167578 69.15928 0 136.159893-13.389193 199.471648-40.222228 60.961815-25.79469 115.720881-62.737932 162.66503-109.682081 46.998799-47.080774 84.024016-101.89449 109.818706-162.801654 26.696411-63.22978 40.167578-130.175744 40.167578-199.335023C1024.273249 442.745083 1010.802081 375.799119 984.10567 312.487365L984.10567 312.487365zM959.048753 511.959013c0 246.415797-200.400694 446.816491-446.871141 446.816491-246.415797 0-446.816491-200.400694-446.816491-446.816491 0-246.470447 200.400694-446.871141 446.816491-446.871141C758.648059 65.087872 959.048753 265.488566 959.048753 511.959013L959.048753 511.959013zM566.144256 247.180894c-9.673009 10.602055-14.673462 23.4994-14.673462 38.391461 0 12.241548 3.989433 22.925577 11.831674 31.205017 7.978866 8.388739 18.307672 12.733396 30.057372 12.733396 9.536384 0 23.717999-2.923763 36.669993-17.296651 10.110207-10.902628 15.247285-23.991247 15.247285-38.61006 0-11.968299-4.126057-22.433729-12.022949-30.549219C615.984843 225.320987 584.670527 227.233729 566.144256 247.180894L566.144256 247.180894z" p-id="1729"></path></svg>